{"title":"The Flash 2014 S02E09 1080p HDTV X264-DIMENSION[rartv]","uid":12964840,"size":2609259079,"categoryP":"video","categoryS":"hd___tv_shows","magnet":"?xt=urn:btih:1aed916b6943aae77da042875b694876b55e3010&amp;dn=The+Flash+2014+S02E09+1080p+HDTV+X264-DIMENSION%5Brartv%5D&amp;tr=udp%3A%2F%2Ftracker.leechers-paradise.org%3A6969&amp;tr=udp%3A%2F%2Fzer0day.ch%3A1337&amp;tr=udp%3A%2F%2Fopen.demonii.com%3A1337&amp;tr=udp%3A%2F%2Ftracker.coppersurfer.tk%3A6969&amp;tr=udp%3A%2F%2Fexodus.desync.com%3A6969","seeders":0,"leechers":7,"uploader":"cheerfulcaca","files":3,"time":1449881042,"description":"***FALL FINALE***\n\nSEASON 2, EPISODE 9 &quot;RUNNING TO STAND STILL&quot; SYNOPSIS:\n\nWhen Mark Mardon AKA The Weather Wizard (guest star Liam McIntyre) returns to break Leonard Snart AKA Captain Cold (guest star Wentworth Miller) and James Jesse AKA The Trickster (guest star Mark Hamill) out of Iron Heights, Barry (Grant Gustin) must stop these rogues from taking over Central City during Christmas.  Meanwhile, Joe (Jesse L. Martin) and Iris (Candice Patton) meet Wally West (Keiynan Lonsdale).\n\n\nSERIES INFO:\n\n8.3/10·IMDb\n8.3/10·TV.com\n\nAt 11, Barry Allen's life changed completely when his mother died in a freak accident and his innocent father was convicted of her murder. Now a crime-scene investigator, his dedication to learn the truth about his mother's death drives him to follow up on every new scientific advancement and urban legend. When his latest obsession -- a particle accelerator heralded as a world-changing invention -- causes an explosion, it creates a freak storm and Barry is struck by lightning. He awakes from a coma nine months later with the power of superspeed. When he learns that others who have gained powers use them for evil, he dedicates himself to protecting the innocent, while still trying to solve the older mystery.\n\n\nMEDIA INFO:\n\nVideo:\n\nID : 1\nFormat : AVC\nFormat/Info : Advanced Video Codec\nFormat profile :   \nFormat settings, CABAC : Yes\nFormat settings, ReFrames : 4 frames\nCodec ID : V_MPEG4/ISO/AVC\nDuration : 42mn 23s\nBit rate : 7 659 Kbps\nWidth : 1 920 pixels\nHeight : 1 066 pixels\nDisplay aspect ratio : 16:9\nFrame rate mode : Constant\nFrame rate : 23.976 fps\nColor space : YUV\nChroma subsampling : 4:2:0\nBit depth : 8 bits\nScan type : Progressive\nBits/(Pixel*Frame) : 0.156\nStream size : 2.27 GiB (93%)\nWriting library : x264 core 148 r2638 7599210\nEncoding settings : cabac=1 / ref=4 / deblock=1:-2:-2 / analyse=0x3:0x113 / me=umh / subme=9 / psy=1 / psy_rd=1.00:0.00 / mixed_ref=1 / me_range=24 / chroma_me=1 / trellis=1 / 8x8dct=1 / cqm=0 / deadzone=21,11 / fast_pskip=0 / chroma_qp_offset=-2 / threads=18 / lookahead_threads=2 / sliced_threads=0 / nr=0 / decimate=1 / interlaced=0 / bluray_compat=0 / constrained_intra=0 / bframes=5 / b_pyramid=2 / b_adapt=2 / b_bias=0 / direct=3 / weightb=1 / open_gop=0 / weightp=2 / keyint=250 / keyint_min=23 / scenecut=40 / intra_refresh=0 / rc_lookahead=50 / rc=crf / mbtree=1 / crf=17.0 / qcomp=0.60 / qpmin=0 / qpmax=69 / qpstep=4 / ip_ratio=1.40 / aq=1:1.00\nLanguage : English\nDefault : Yes\nForced : No\nDURATION : 00:42:23.458000000\nNUMBER_OF_FRAMES : 60982\nNUMBER_OF_BYTES : 2486562066\n_STATISTICS_WRITING_APP : mkvmerge v8.4.0 ('A better way to fly') 64bit\n_STATISTICS_WRITING_DATE_UTC : 2015-12-08 23:15:38\n_STATISTICS_TAGS : BPS DURATION NUMBER_OF_FRAMES NUMBER_OF_BYTES\n\nAudio:\n\nID : 2\nFormat : AC-3\nFormat/Info : Audio Coding 3\nMode extension : CM (complete main)\nFormat settings, Endianness : Big\nCodec ID : A_AC3\nDuration : 42mn 23s\nBit rate mode : Constant\nBit rate : 384 Kbps\nChannel(s) : 6 channels\nChannel positions : Front: L C R, Side: L R, LFE\nSampling rate : 48.0 KHz\nCompression mode : Lossy\nStream size : 116 MiB (5%)\nDefault : Yes\nForced : No \nhttps://rarbg.to","torrent":{"xt":"urn:btih:1aed916b6943aae77da042875b694876b55e3010","amp;dn":"The+Flash+2014+S02E09+1080p+HDTV+X264-DIMENSION%5Brartv%5D","amp;tr":["udp%3A%2F%2Ftracker.leechers-paradise.org%3A6969","udp%3A%2F%2Fzer0day.ch%3A1337","udp%3A%2F%2Fopen.demonii.com%3A1337","udp%3A%2F%2Ftracker.coppersurfer.tk%3A6969","udp%3A%2F%2Fexodus.desync.com%3A6969"],"infoHash":"1aed916b6943aae77da042875b694876b55e3010","infoHashBuffer":{"type":"Buffer","data":[26,237,145,107,105,67,170,231,125,160,66,135,91,105,72,118,181,94,48,16]},"announce":[],"urlList":[]}}